<svg width="42" height="42" viewBox="0 0 42 42" fill="none" xmlns="http://www.w3.org/2000/svg">
<path d="M38.2587 22.771C37.9243 22.3971 37.7399 21.9165 37.7399 21.4188C37.7399 20.9211 37.9243 20.4405 38.2587 20.0666L40.9284 17.1163C41.2226 16.7939 41.4053 16.3883 41.4502 15.9577C41.4952 15.527 41.4002 15.0934 41.1787 14.7191L37.0073 7.63019C36.7881 7.25632 36.4543 6.95997 36.0536 6.78338C35.6528 6.60679 35.2056 6.55898 34.7755 6.64675L30.8544 7.42531C30.3554 7.52658 29.836 7.44495 29.3941 7.19584C28.9522 6.94672 28.6185 6.54735 28.4558 6.07308L27.1835 2.32372C27.0436 1.91678 26.777 1.56333 26.4214 1.31333C26.0659 1.06332 25.6393 0.929412 25.202 0.930521H16.8591C16.4043 0.907201 15.9542 1.03076 15.5776 1.28233C15.201 1.5339 14.9185 1.89966 14.7734 2.32372L13.6054 6.07308C13.4427 6.54735 13.109 6.94672 12.6671 7.19584C12.2252 7.44495 11.7058 7.52658 11.2068 7.42531L7.18138 6.64675C6.77372 6.59016 6.35814 6.65335 5.98698 6.82836C5.61582 7.00336 5.30569 7.28236 5.09565 7.63019L0.924199 14.7191C0.697189 15.0893 0.595118 15.5204 0.632579 15.9509C0.670039 16.3815 0.845113 16.7894 1.13277 17.1163L3.78164 20.0666C4.11603 20.4405 4.30044 20.9211 4.30044 21.4188C4.30044 21.9165 4.11603 22.3971 3.78164 22.771L1.13277 25.7213C0.845113 26.0483 0.670039 26.4561 0.632579 26.8867C0.595118 27.3172 0.697189 27.7484 0.924199 28.1185L5.09565 35.2074C5.31486 35.5813 5.64862 35.8776 6.04935 36.0542C6.45009 36.2308 6.89735 36.2786 7.32738 36.1909L11.2485 35.4123C11.7475 35.311 12.2669 35.3927 12.7088 35.6418C13.1507 35.8909 13.4844 36.2903 13.6471 36.7645L14.9194 40.5139C15.0645 40.938 15.347 41.3037 15.7236 41.5553C16.1002 41.8068 16.5503 41.9304 17.0051 41.9071H25.348C25.7853 41.9082 26.2119 41.7743 26.5674 41.5243C26.923 41.2743 27.1896 40.9208 27.3295 40.5139L28.6018 36.7645C28.7645 36.2903 29.0982 35.8909 29.5401 35.6418C29.982 35.3927 30.5014 35.311 31.0004 35.4123L34.9215 36.1909C35.3516 36.2786 35.7988 36.2308 36.1996 36.0542C36.6003 35.8776 36.9341 35.5813 37.1533 35.2074L41.3247 28.1185C41.5462 27.7442 41.6412 27.3106 41.5963 26.8799C41.5513 26.4493 41.3686 26.0437 41.0744 25.7213L38.2587 22.771ZM35.151 25.5165L36.8195 27.3604L34.1498 31.9088L31.6887 31.4171C30.1865 31.1154 28.6238 31.3661 27.2974 32.1215C25.9709 32.8768 24.9729 34.0843 24.4929 35.5147L23.7003 37.8094H18.3609L17.61 35.4738C17.13 34.0434 16.132 32.8359 14.8055 32.0805C13.4791 31.3251 11.9164 31.0745 10.4143 31.3761L7.95309 31.8678L5.24165 27.3399L6.91023 25.496C7.93632 24.3691 8.50359 22.9102 8.50359 21.3983C8.50359 19.8864 7.93632 18.4276 6.91023 17.3007L5.24165 15.4567L7.91138 10.9493L10.3725 11.441C11.8747 11.7426 13.4374 11.492 14.7638 10.7366C16.0903 9.98125 17.0883 8.77376 17.5683 7.34335L18.3609 5.02818H23.7003L24.4929 7.36384C24.9729 8.79425 25.9709 10.0017 27.2974 10.7571C28.6238 11.5125 30.1865 11.7631 31.6887 11.4615L34.1498 10.9698L36.8195 15.5182L35.151 17.3621C34.1364 18.4864 33.5762 19.9368 33.5762 21.4393C33.5762 22.9417 34.1364 24.3921 35.151 25.5165ZM21.0306 13.2235C19.3805 13.2235 17.7675 13.7041 16.3955 14.6046C15.0235 15.5052 13.9542 16.7851 13.3228 18.2826C12.6913 19.7801 12.5261 21.4279 12.848 23.0176C13.1699 24.6074 13.9645 26.0676 15.1313 27.2138C16.298 28.3599 17.7846 29.1404 19.403 29.4566C21.0213 29.7729 22.6988 29.6106 24.2233 28.9903C25.7478 28.37 27.0507 27.3196 27.9675 25.9719C28.8842 24.6242 29.3735 23.0397 29.3735 21.4188C29.3735 19.2453 28.4945 17.1608 26.9299 15.6238C25.3653 14.0869 23.2433 13.2235 21.0306 13.2235ZM21.0306 25.5165C20.2056 25.5165 19.3991 25.2761 18.7131 24.8259C18.0271 24.3756 17.4924 23.7357 17.1767 22.9869C16.861 22.2382 16.7783 21.4143 16.9393 20.6194C17.1003 19.8245 17.4975 19.0944 18.0809 18.5213C18.6643 17.9483 19.4076 17.558 20.2168 17.3999C21.026 17.2418 21.8647 17.3229 22.6269 17.6331C23.3892 17.9432 24.0407 18.4684 24.499 19.1423C24.9574 19.8161 25.202 20.6084 25.202 21.4188C25.202 22.5056 24.7626 23.5478 23.9803 24.3163C23.198 25.0847 22.1369 25.5165 21.0306 25.5165Z" fill="#1E136B"/>
</svg>
