<svg width="22" height="25" viewBox="0 0 22 25" fill="none" xmlns="http://www.w3.org/2000/svg">
<path d="M3.21218 24.1991C2.57051 24.1991 2.02101 23.9708 1.56368 23.5142C1.10712 23.0569 0.878845 22.5074 0.878845 21.8657V5.53239C0.878845 4.89072 1.10712 4.34122 1.56368 3.88389C2.02101 3.42733 2.57051 3.19906 3.21218 3.19906H8.11218C8.36496 2.49906 8.78807 1.93517 9.38151 1.50739C9.97418 1.07961 10.64 0.865723 11.3788 0.865723C12.1177 0.865723 12.7839 1.07961 13.3773 1.50739C13.97 1.93517 14.3927 2.49906 14.6455 3.19906H19.5455C20.1872 3.19906 20.7367 3.42733 21.194 3.88389C21.6506 4.34122 21.8788 4.89072 21.8788 5.53239V21.8657C21.8788 22.5074 21.6506 23.0569 21.194 23.5142C20.7367 23.9708 20.1872 24.1991 19.5455 24.1991H3.21218ZM3.21218 21.8657H19.5455V5.53239H3.21218V21.8657ZM5.54551 19.5324H13.7122V17.1991H5.54551V19.5324ZM5.54551 14.8657H17.2122V12.5324H5.54551V14.8657ZM5.54551 10.1991H17.2122V7.86572H5.54551V10.1991ZM11.3788 4.65739C11.6316 4.65739 11.8408 4.57456 12.0065 4.40889C12.1714 4.244 12.2538 4.03517 12.2538 3.78239C12.2538 3.52961 12.1714 3.32039 12.0065 3.15472C11.8408 2.98983 11.6316 2.90739 11.3788 2.90739C11.1261 2.90739 10.9172 2.98983 10.7523 3.15472C10.5867 3.32039 10.5038 3.52961 10.5038 3.78239C10.5038 4.03517 10.5867 4.244 10.7523 4.40889C10.9172 4.57456 11.1261 4.65739 11.3788 4.65739Z" fill="black"/>
</svg>
