<svg width="41" height="41" viewBox="0 0 41 41" fill="none" xmlns="http://www.w3.org/2000/svg">
<path d="M20.5819 34.75L26.2819 29.1L20.5819 23.45L18.4819 25.55L20.6319 27.7C19.6986 27.7333 18.7906 27.5833 17.9079 27.25C17.0239 26.9167 16.2319 26.4 15.5319 25.7C14.8653 25.0333 14.3566 24.2667 14.0059 23.4C13.6566 22.5333 13.4819 21.6667 13.4819 20.8C13.4819 20.2333 13.5573 19.6667 13.7079 19.1C13.8573 18.5333 14.0653 17.9833 14.3319 17.45L12.1319 15.25C11.5653 16.0833 11.1486 16.9667 10.8819 17.9C10.6153 18.8333 10.4819 19.7833 10.4819 20.75C10.4819 22.0167 10.7319 23.2667 11.2319 24.5C11.7319 25.7333 12.4653 26.8333 13.4319 27.8C14.3986 28.7667 15.4819 29.492 16.6819 29.976C17.8819 30.4587 19.1153 30.7167 20.3819 30.75L18.4819 32.65L20.5819 34.75ZM28.8319 26.25C29.3986 25.4167 29.8153 24.5333 30.0819 23.6C30.3486 22.6667 30.4819 21.7167 30.4819 20.75C30.4819 19.4833 30.2406 18.2247 29.7579 16.974C29.2739 15.7247 28.5486 14.6167 27.5819 13.65C26.6153 12.6833 25.5239 11.9667 24.3079 11.5C23.0906 11.0333 21.8486 10.8 20.5819 10.8L22.4819 8.85L20.3819 6.75L14.6819 12.4L20.3819 18.05L22.4819 15.95L20.2819 13.75C21.1819 13.75 22.0986 13.9247 23.0319 14.274C23.9653 14.6247 24.7653 15.1333 25.4319 15.8C26.0986 16.4667 26.6073 17.2333 26.9579 18.1C27.3073 18.9667 27.4819 19.8333 27.4819 20.7C27.4819 21.2667 27.4066 21.8333 27.2559 22.4C27.1066 22.9667 26.8986 23.5167 26.6319 24.05L28.8319 26.25ZM20.4819 40.75C17.7153 40.75 15.1153 40.2247 12.6819 39.174C10.2486 38.1247 8.13193 36.7 6.33193 34.9C4.53193 33.1 3.10727 30.9833 2.05793 28.55C1.00727 26.1167 0.481934 23.5167 0.481934 20.75C0.481934 17.9833 1.00727 15.3833 2.05793 12.95C3.10727 10.5167 4.53193 8.4 6.33193 6.6C8.13193 4.8 10.2486 3.37467 12.6819 2.324C15.1153 1.27467 17.7153 0.75 20.4819 0.75C23.2486 0.75 25.8486 1.27467 28.2819 2.324C30.7153 3.37467 32.8319 4.8 34.6319 6.6C36.4319 8.4 37.8566 10.5167 38.9059 12.95C39.9566 15.3833 40.4819 17.9833 40.4819 20.75C40.4819 23.5167 39.9566 26.1167 38.9059 28.55C37.8566 30.9833 36.4319 33.1 34.6319 34.9C32.8319 36.7 30.7153 38.1247 28.2819 39.174C25.8486 40.2247 23.2486 40.75 20.4819 40.75ZM20.4819 36.75C24.9486 36.75 28.7319 35.2 31.8319 32.1C34.9319 29 36.4819 25.2167 36.4819 20.75C36.4819 16.2833 34.9319 12.5 31.8319 9.4C28.7319 6.3 24.9486 4.75 20.4819 4.75C16.0153 4.75 12.2319 6.3 9.13193 9.4C6.03193 12.5 4.48193 16.2833 4.48193 20.75C4.48193 25.2167 6.03193 29 9.13193 32.1C12.2319 35.2 16.0153 36.75 20.4819 36.75Z" fill="#1E136B"/>
</svg>
