<svg width="22" height="23" viewBox="0 0 22 23" fill="none" xmlns="http://www.w3.org/2000/svg">
<path d="M20.625 6.96146V5.99896C19.0314 4.39984 16.8657 3.37271 14.4595 3.25034C14.3055 3.23384 14.1543 3.22559 14.0002 3.22559C12.7985 3.22559 11.7219 3.76734 11.0041 4.61846C10.2396 3.77009 9.13825 3.23384 7.91175 3.23384C7.788 3.23384 7.667 3.23934 7.546 3.25034C5.13425 3.37271 2.96725 4.39984 1.375 5.99896V6.96146L0 7.37396V21.124L9.2125 19.199L9.625 19.749H12.375L12.7875 19.199L22 21.124V7.37396L20.625 6.96146ZM7.535 16.0502C5.78188 16.1011 4.14288 16.5425 2.68675 17.2905L2.75 6.57646C3.96688 5.42834 5.59075 4.69959 7.38237 4.62396C8.49063 4.69821 9.49162 5.04059 10.351 5.58784L10.3249 16.4077C9.56175 16.1795 8.6845 16.0475 7.77563 16.0475C7.69038 16.0475 7.60512 16.0488 7.52125 16.0516L7.535 16.0502ZM19.25 17.2602C17.8571 16.5425 16.2181 16.1011 14.4815 16.0502C14.4045 16.0488 14.333 16.0475 14.2601 16.0475C13.3526 16.0475 12.4768 16.1795 11.649 16.4242L11.7136 5.55896C12.54 5.03509 13.5314 4.69684 14.5956 4.62534C16.4161 4.70096 18.0345 5.43109 19.2514 6.58059L19.2472 17.2616L19.25 17.2602Z" fill="#FB6765"/>
</svg>
