<svg width="26" height="20" viewBox="0 0 26 20" fill="none" xmlns="http://www.w3.org/2000/svg">
<path d="M15.3334 11.1667C14.3612 11.1667 13.5348 10.8264 12.8542 10.1459C12.1737 9.4653 11.8334 8.63891 11.8334 7.66669C11.8334 6.69446 12.1737 5.86808 12.8542 5.18752C13.5348 4.50696 14.3612 4.16669 15.3334 4.16669C16.3056 4.16669 17.132 4.50696 17.8126 5.18752C18.4931 5.86808 18.8334 6.69446 18.8334 7.66669C18.8334 8.63891 18.4931 9.4653 17.8126 10.1459C17.132 10.8264 16.3056 11.1667 15.3334 11.1667ZM7.16675 14.6667C6.52508 14.6667 5.97597 14.438 5.51941 13.9807C5.06208 13.5241 4.83341 12.975 4.83341 12.3334V3.00002C4.83341 2.35835 5.06208 1.80924 5.51941 1.35269C5.97597 0.895353 6.52508 0.666687 7.16675 0.666687H23.5001C24.1417 0.666687 24.6912 0.895353 25.1486 1.35269C25.6051 1.80924 25.8334 2.35835 25.8334 3.00002V12.3334C25.8334 12.975 25.6051 13.5241 25.1486 13.9807C24.6912 14.438 24.1417 14.6667 23.5001 14.6667H7.16675ZM9.50008 12.3334H21.1667C21.1667 11.6917 21.395 11.1422 21.8516 10.6849C22.3089 10.2283 22.8584 10 23.5001 10V5.33335C22.8584 5.33335 22.3089 5.10469 21.8516 4.64735C21.395 4.1908 21.1667 3.64169 21.1667 3.00002H9.50008C9.50008 3.64169 9.27141 4.1908 8.81408 4.64735C8.35752 5.10469 7.80841 5.33335 7.16675 5.33335V10C7.80841 10 8.35752 10.2283 8.81408 10.6849C9.27141 11.1422 9.50008 11.6917 9.50008 12.3334ZM22.3334 19.3334H2.50008C1.85841 19.3334 1.3093 19.1051 0.852748 18.6485C0.395415 18.1912 0.166748 17.6417 0.166748 17V4.16669H2.50008V17H22.3334V19.3334Z" fill="#202020"/>
</svg>
