<svg width="24" height="24" viewBox="0 0 24 24" fill="none" xmlns="http://www.w3.org/2000/svg">
<path d="M22.0709 23.3957L19.0084 20.3332H3.66675V17.0666C3.66675 16.4055 3.83708 15.7976 4.17775 15.2431C4.51764 14.6893 4.96953 14.2666 5.53341 13.9749C6.40841 13.5277 7.29819 13.168 8.20275 12.8957C9.10653 12.6235 10.0251 12.4193 10.9584 12.2832L0.604248 1.92907L2.26675 0.266571L23.7334 21.7332L22.0709 23.3957ZM6.00008 17.9999H16.6751L13.1751 14.4999H13.0001C11.9112 14.4999 10.832 14.631 9.76258 14.8931C8.69314 15.156 7.63342 15.5499 6.58342 16.0749C6.40842 16.1721 6.26764 16.3082 6.16108 16.4832C6.05375 16.6582 6.00008 16.8527 6.00008 17.0666V17.9999ZM20.4667 13.9749C21.0306 14.2471 21.4779 14.6605 21.8084 15.2151C22.139 15.7688 22.314 16.3666 22.3334 17.0082L18.4251 13.0999C18.7751 13.236 19.1204 13.3721 19.4611 13.5082C19.801 13.6443 20.1362 13.7999 20.4667 13.9749ZM15.5667 10.2416L13.8459 8.52074C14.2931 8.34574 14.6529 8.05874 14.9251 7.65974C15.1973 7.26152 15.3334 6.81935 15.3334 6.33324C15.3334 5.69157 15.1051 5.14246 14.6486 4.6859C14.1912 4.22857 13.6417 3.9999 13.0001 3.9999C12.514 3.9999 12.0718 4.13602 11.6736 4.40824C11.2746 4.68046 10.9876 5.04018 10.8126 5.48741L9.09175 3.76657C9.53897 3.10546 10.1029 2.59018 10.7834 2.22074C11.464 1.85129 12.2029 1.66657 13.0001 1.66657C14.2834 1.66657 15.382 2.12352 16.2959 3.0374C17.2098 3.95129 17.6667 5.0499 17.6667 6.33324C17.6667 7.13046 17.482 7.86935 17.1126 8.5499C16.7431 9.23046 16.2279 9.79435 15.5667 10.2416Z" fill="#202020"/>
</svg>
