<svg width="24" height="20" viewBox="0 0 24 20" fill="none" xmlns="http://www.w3.org/2000/svg">
<path d="M0.333282 19.3334V16.0667C0.333282 15.425 0.49856 14.8223 0.829116 14.2584C1.15967 13.6945 1.61662 13.2667 2.19995 12.975C3.19162 12.4695 4.30967 12.0417 5.55411 11.6917C6.79856 11.3417 8.16939 11.1667 9.66661 11.1667C10.2499 11.1667 10.8189 11.1959 11.3734 11.2542C11.9272 11.3125 12.4666 11.4 12.9916 11.5167L10.9499 13.5584C10.7361 13.5195 10.5268 13.5 10.3223 13.5H9.66661C8.28606 13.5 7.04628 13.6653 5.94728 13.9959C4.84906 14.3264 3.94995 14.6861 3.24995 15.075C3.07495 15.1723 2.93417 15.3084 2.82762 15.4834C2.72028 15.6584 2.66662 15.8528 2.66662 16.0667V17H9.95828L12.2916 19.3334H0.333282ZM16.1416 19.8L12.1166 15.775L13.7499 14.1417L16.1416 16.5334L22.0333 10.6417L23.6666 12.275L16.1416 19.8ZM9.66661 10C8.38328 10 7.28467 9.54309 6.37078 8.6292C5.45689 7.71531 4.99995 6.6167 4.99995 5.33337C4.99995 4.05004 5.45689 2.95142 6.37078 2.03754C7.28467 1.12365 8.38328 0.666702 9.66661 0.666702C10.9499 0.666702 12.0486 1.12365 12.9624 2.03754C13.8763 2.95142 14.3333 4.05004 14.3333 5.33337C14.3333 6.6167 13.8763 7.71531 12.9624 8.6292C12.0486 9.54309 10.9499 10 9.66661 10ZM9.66661 7.6667C10.3083 7.6667 10.8578 7.43804 11.3151 6.9807C11.7717 6.52415 11.9999 5.97504 11.9999 5.33337C11.9999 4.6917 11.7717 4.14259 11.3151 3.68604C10.8578 3.2287 10.3083 3.00004 9.66661 3.00004C9.02495 3.00004 8.47584 3.2287 8.01928 3.68604C7.56195 4.14259 7.33328 4.6917 7.33328 5.33337C7.33328 5.97504 7.56195 6.52415 8.01928 6.9807C8.47584 7.43804 9.02495 7.6667 9.66661 7.6667Z" fill="#202020"/>
</svg>
