<svg width="26" height="22" viewBox="0 0 26 22" fill="none" xmlns="http://www.w3.org/2000/svg">
<path d="M2.66667 19.3385C2.025 19.3385 1.47589 19.1103 1.01934 18.6537C0.562003 18.1964 0.333336 17.6469 0.333336 17.0052V3.00521C0.333336 2.36354 0.562003 1.81443 1.01934 1.35787C1.47589 0.900541 2.025 0.671875 2.66667 0.671875H21.3333C21.975 0.671875 22.5245 0.900541 22.9818 1.35787C23.4384 1.81443 23.6667 2.36354 23.6667 3.00521V10.0052H2.66667V17.0052H14.3333V19.3385H2.66667ZM2.66667 5.33854H21.3333V3.00521H2.66667V5.33854ZM20.1667 21.6719V18.1719H16.6667V15.8385H20.1667V12.3385H22.5V15.8385H26V18.1719H22.5V21.6719H20.1667Z" fill="white"/>
</svg>
