<svg width="25" height="25" viewBox="0 0 25 25" fill="none" xmlns="http://www.w3.org/2000/svg">
<path fill-rule="evenodd" clip-rule="evenodd" d="M2.08325 12.4997C2.08325 6.74671 6.74695 2.08301 12.4999 2.08301C18.2529 2.08301 22.9166 6.74671 22.9166 12.4997C22.9166 18.2526 18.2529 22.9163 12.4999 22.9163C6.74695 22.9163 2.08325 18.2526 2.08325 12.4997ZM13.5416 6.77051C13.5416 6.1952 13.0752 5.72884 12.4999 5.72884C11.9246 5.72884 11.4583 6.1952 11.4583 6.77051V14.0622C11.4583 14.6375 11.9246 15.1038 12.4999 15.1038C13.0752 15.1038 13.5416 14.6375 13.5416 14.0622V6.77051ZM12.4999 17.1872C13.0752 17.1872 13.5416 17.6535 13.5416 18.2288C13.5416 18.8042 13.0752 19.2705 12.4999 19.2705C11.9246 19.2705 11.4583 18.8042 11.4583 18.2288C11.4583 17.6535 11.9246 17.1872 12.4999 17.1872Z" fill="#333333" fill-opacity="0.47"/>
</svg>
