<svg width="43" height="33" viewBox="0 0 43 33" fill="none" xmlns="http://www.w3.org/2000/svg">
<path d="M39.2087 0.75H9.17522C8.30973 0.751016 7.47998 1.09528 6.86799 1.70727C6.25599 2.31927 5.91173 3.14902 5.91071 4.01451C5.91071 4.36083 6.04829 4.69297 6.29317 4.93785C6.53806 5.18274 6.8702 5.32031 7.21652 5.32031C7.56284 5.32031 7.89497 5.18274 8.13986 4.93785C8.38474 4.69297 8.52232 4.36083 8.52232 4.01451C8.52249 3.8414 8.59134 3.67543 8.71374 3.55303C8.83615 3.43062 9.00211 3.36178 9.17522 3.36161H39.2087C39.3818 3.36178 39.5478 3.43062 39.6702 3.55303C39.7926 3.67543 39.8614 3.8414 39.8616 4.01451V8.58482H37.1573C37.0134 8.02561 36.688 7.52994 36.2322 7.17548C35.7764 6.82102 35.2158 6.62781 34.6384 6.62612H3.29911C2.60669 6.62685 1.94285 6.90224 1.45324 7.39185C0.963626 7.88146 0.688238 8.54531 0.6875 9.23772L0.6875 29.4777C0.688238 30.1701 0.963626 30.8339 1.45324 31.3235C1.94285 31.8132 2.60669 32.0885 3.29911 32.0893H34.6384C35.3308 32.0885 35.9946 31.8132 36.4843 31.3235C36.9739 30.8339 37.2493 30.1701 37.25 29.4777V26.2132H39.2087C40.0742 26.2122 40.9039 25.8679 41.5159 25.2559C42.1279 24.6439 42.4722 23.8141 42.4732 22.9487V4.01451C42.4722 3.14902 42.1279 2.31927 41.5159 1.70727C40.9039 1.09528 40.0742 0.751016 39.2087 0.75ZM39.8616 15.7667H37.25V11.1964H39.8616V15.7667ZM3.29911 29.4777V9.23772H34.6384L34.6403 29.4777H3.29911ZM39.2087 23.6016H37.25V18.3783H39.8616V22.9487C39.8614 23.1218 39.7926 23.2877 39.6702 23.4101C39.5478 23.5325 39.3818 23.6014 39.2087 23.6016Z" fill="#1E136B"/>
<path d="M7.21645 21.6434H13.484C13.8304 21.6434 14.1625 21.5058 14.4074 21.2609C14.6523 21.0161 14.7898 20.6839 14.7899 20.3376V15.1144C14.7898 14.7681 14.6523 14.436 14.4074 14.1911C14.1625 13.9462 13.8304 13.8086 13.484 13.8086H7.21645C6.87013 13.8086 6.53801 13.9462 6.29312 14.1911C6.04824 14.436 5.91066 14.7681 5.91064 15.1144V20.3376C5.91066 20.6839 6.04824 21.0161 6.29312 21.2609C6.53801 21.5058 6.87013 21.6434 7.21645 21.6434ZM8.52225 16.4202H12.1782V19.0318H8.52225V16.4202ZM22.2332 24.255H7.21645C6.87013 24.255 6.53799 24.3926 6.29311 24.6375C6.04822 24.8824 5.91064 25.2145 5.91064 25.5608C5.91064 25.9071 6.04822 26.2393 6.29311 26.4842C6.53799 26.7291 6.87013 26.8666 7.21645 26.8666H22.2332C22.5795 26.8666 22.9116 26.7291 23.1565 26.4842C23.4014 26.2393 23.539 25.9071 23.539 25.5608C23.539 25.2145 23.4014 24.8824 23.1565 24.6375C22.9116 24.3926 22.5795 24.255 22.2332 24.255Z" fill="#1E136B"/>
<path d="M30.7213 14.4612C31.4425 14.4612 32.0271 13.8766 32.0271 13.1554C32.0271 12.4342 31.4425 11.8496 30.7213 11.8496C30.0002 11.8496 29.4155 12.4342 29.4155 13.1554C29.4155 13.8766 30.0002 14.4612 30.7213 14.4612Z" fill="#1E136B"/>
<path d="M30.7209 24.2539H27.4564C27.1101 24.2539 26.778 24.3915 26.5331 24.6364C26.2882 24.8813 26.1506 25.2134 26.1506 25.5597C26.1506 25.906 26.2882 26.2382 26.5331 26.4831C26.778 26.7279 27.1101 26.8655 27.4564 26.8655H30.7209C31.0673 26.8655 31.3994 26.7279 31.6443 26.4831C31.8892 26.2382 32.0268 25.906 32.0268 25.5597C32.0268 25.2134 31.8892 24.8813 31.6443 24.6364C31.3994 24.3915 31.0673 24.2539 30.7209 24.2539Z" fill="#1E136B"/>
</svg>
