<svg width="33" height="42" viewBox="0 0 33 42" fill="none" xmlns="http://www.w3.org/2000/svg">
<path d="M13.4875 0.927734C8.60585 0.927734 4.61173 4.87958 4.61173 9.70962V15.5642C2.09692 15.5642 0.173828 17.467 0.173828 19.9552V28.737C0.173828 32.2498 1.5052 35.6162 4.02001 38.1044C6.53482 40.5926 9.93722 41.9099 13.4875 41.9099C19.8485 41.9099 25.174 37.5189 26.5054 31.6643H26.8013C28.4285 31.6643 29.9078 31.0789 30.9433 29.908C32.1267 28.737 32.7185 27.2734 32.7185 25.8097C32.7185 24.3461 32.1267 22.7361 30.9433 21.7115C29.7599 20.687 28.4285 19.9552 26.8013 19.9552C26.8013 17.467 24.8782 15.5642 22.3634 15.5642V9.70962C22.3634 4.87958 18.3692 0.927734 13.4875 0.927734ZM28.8723 23.7606C29.464 24.3461 29.7599 25.0779 29.7599 25.8097C29.7599 26.5416 29.464 27.2734 28.8723 27.8589C28.1326 28.5907 26.9492 28.8834 25.7657 28.5907C24.5823 28.1516 23.8427 27.127 23.8427 25.8097C23.8427 25.0779 24.1385 24.3461 24.7302 23.7606C25.0261 23.4679 25.4699 23.1752 25.9137 23.0288C26.2095 22.8825 26.5054 22.8825 26.8013 22.8825C27.5409 22.8825 28.2806 23.1752 28.8723 23.7606ZM23.8427 19.9552V20.8333C23.3989 21.1261 22.9551 21.4188 22.6592 21.7115C21.9196 22.4434 21.3278 23.3215 21.1799 24.3461H7.57034C6.68275 24.3461 6.09103 24.9316 6.09103 25.8097V28.737C6.09103 29.6152 6.68275 30.2007 7.57034 30.2007C8.45792 30.2007 9.04964 29.6152 9.04964 28.737V27.2734H12.0082V28.737C12.0082 29.6152 12.6 30.2007 13.4875 30.2007C14.3751 30.2007 14.9668 29.6152 14.9668 28.737V27.2734H21.032C21.4758 28.737 22.3633 29.908 23.5468 30.7861C22.6592 35.4698 18.5172 38.9826 13.4875 38.9826C10.6769 38.9826 8.16206 37.958 6.09103 36.0553C4.16794 34.1525 3.13243 31.518 3.13243 28.737V19.9552C3.13243 19.077 3.72415 18.4915 4.61173 18.4915H22.3634C23.2509 18.4915 23.8427 19.077 23.8427 19.9552ZM7.57034 15.5642V9.70962C7.57034 6.4896 10.2331 3.85503 13.4875 3.85503C16.742 3.85503 19.4047 6.4896 19.4047 9.70962V15.5642H7.57034Z" fill="#1E136B"/>
</svg>
