<svg width="26" height="26" viewBox="0 0 26 26" fill="none" xmlns="http://www.w3.org/2000/svg">
<path d="M9.56274 25.5L9.06274 21.5C8.79191 21.3958 8.53691 21.2708 8.29774 21.125C8.05774 20.9792 7.82316 20.8229 7.59399 20.6563L3.87524 22.2188L0.437744 16.2813L3.65649 13.8438C3.63566 13.6979 3.62524 13.5571 3.62524 13.4213V12.5775C3.62524 12.4425 3.63566 12.3021 3.65649 12.1563L0.437744 9.71875L3.87524 3.78125L7.59399 5.34375C7.82316 5.17708 8.06274 5.02083 8.31274 4.875C8.56274 4.72917 8.81274 4.60417 9.06274 4.5L9.56274 0.5H16.4377L16.9377 4.5C17.2086 4.60417 17.464 4.72917 17.704 4.875C17.9432 5.02083 18.1773 5.17708 18.4065 5.34375L22.1252 3.78125L25.5627 9.71875L22.344 12.1563C22.3648 12.3021 22.3752 12.4425 22.3752 12.5775V13.4213C22.3752 13.5571 22.3544 13.6979 22.3127 13.8438L25.5315 16.2813L22.094 22.2188L18.4065 20.6563C18.1773 20.8229 17.9377 20.9792 17.6877 21.125C17.4377 21.2708 17.1877 21.3958 16.9377 21.5L16.4377 25.5H9.56274ZM13.0627 17.375C14.2711 17.375 15.3023 16.9479 16.1565 16.0938C17.0107 15.2396 17.4377 14.2083 17.4377 13C17.4377 11.7917 17.0107 10.7604 16.1565 9.90625C15.3023 9.05208 14.2711 8.625 13.0627 8.625C11.8336 8.625 10.7969 9.05208 9.95274 9.90625C9.10941 10.7604 8.68774 11.7917 8.68774 13C8.68774 14.2083 9.10941 15.2396 9.95274 16.0938C10.7969 16.9479 11.8336 17.375 13.0627 17.375ZM13.0627 14.875C12.5419 14.875 12.0994 14.6925 11.7352 14.3275C11.3702 13.9633 11.1877 13.5208 11.1877 13C11.1877 12.4792 11.3702 12.0367 11.7352 11.6725C12.0994 11.3075 12.5419 11.125 13.0627 11.125C13.5836 11.125 14.0265 11.3075 14.3915 11.6725C14.7557 12.0367 14.9377 12.4792 14.9377 13C14.9377 13.5208 14.7557 13.9633 14.3915 14.3275C14.0265 14.6925 13.5836 14.875 13.0627 14.875ZM11.7502 23H14.219L14.6565 19.6875C15.3023 19.5208 15.9015 19.2758 16.454 18.9525C17.0057 18.63 17.5107 18.2396 17.969 17.7813L21.0627 19.0625L22.2815 16.9375L19.594 14.9063C19.6982 14.6146 19.7711 14.3071 19.8127 13.9838C19.8544 13.6613 19.8752 13.3333 19.8752 13C19.8752 12.6667 19.8544 12.3383 19.8127 12.015C19.7711 11.6925 19.6982 11.3854 19.594 11.0938L22.2815 9.0625L21.0627 6.9375L17.969 8.25C17.5107 7.77083 17.0057 7.36958 16.454 7.04625C15.9015 6.72375 15.3023 6.47917 14.6565 6.3125L14.2502 3H11.7815L11.344 6.3125C10.6982 6.47917 10.0994 6.72375 9.54774 7.04625C8.99524 7.36958 8.48983 7.76042 8.03149 8.21875L4.93774 6.9375L3.71899 9.0625L6.40649 11.0625C6.30233 11.375 6.22941 11.6875 6.18774 12C6.14608 12.3125 6.12524 12.6458 6.12524 13C6.12524 13.3333 6.14608 13.6563 6.18774 13.9688C6.22941 14.2813 6.30233 14.5938 6.40649 14.9063L3.71899 16.9375L4.93774 19.0625L8.03149 17.75C8.48983 18.2292 8.99524 18.63 9.54774 18.9525C10.0994 19.2758 10.6982 19.5208 11.344 19.6875L11.7502 23Z" fill="#1C1B1F"/>
</svg>
