<svg width="20" height="20" viewBox="0 0 20 20" fill="none" xmlns="http://www.w3.org/2000/svg">
<g clip-path="url(#clip0_837_751)">
<path d="M7.67407 7.2196H12.4319L16.9631 -0.0908203H12.2053L7.67407 7.2196Z" fill="url(#paint0_linear_837_751)"/>
<path d="M9.32031 7.22005H11.3443L15.8755 -0.105469H13.8516L9.32031 7.22005Z" fill="url(#paint1_linear_837_751)"/>
<path d="M10.7251 7.22005H12.4319L16.9631 -0.105469H15.2715L10.7251 7.22005Z" fill="url(#paint2_linear_837_751)"/>
<g opacity="0.2">
<path d="M16.1475 0.362305L12.1751 6.76647H8.4897L12.4621 0.362305H16.1475ZM16.9631 -0.0908203H12.2053L7.67407 7.2196H12.4168L16.9631 -0.0908203Z" fill="#424242"/>
</g>
<path d="M12.7491 5.37695H7.3116C6.64702 5.37695 6.10327 5.9207 6.10327 6.58529V9.00195C6.10327 9.33424 6.37515 9.60612 6.70744 9.60612C7.03973 9.60612 7.46265 9.33424 7.46265 9.00195V7.49154C7.46265 7.32539 7.59858 7.18945 7.76473 7.18945H12.296C12.4621 7.18945 12.5981 7.32539 12.5981 7.49154V8.98685C12.5981 9.28893 12.9455 9.5457 13.2324 9.59102C13.2777 9.59102 13.308 9.60612 13.3533 9.60612C13.6856 9.60612 13.9574 9.33424 13.9574 9.00195V6.58529C13.9574 5.9207 13.4137 5.37695 12.7491 5.37695Z" fill="#FDD835"/>
<g opacity="0.2">
<path d="M12.7491 5.67904C13.2475 5.67904 13.6554 6.08685 13.6554 6.58529V9.00195C13.6554 9.1681 13.5194 9.30404 13.3533 9.30404C13.3382 9.30404 13.308 9.30404 13.2929 9.30404C13.1116 9.27383 12.9001 9.10768 12.9001 8.98685V7.49154C12.9001 7.15924 12.6283 6.88737 12.296 6.88737H7.76473C7.43244 6.88737 7.16056 7.15924 7.16056 7.49154V9.00195C7.16056 9.13789 6.9189 9.30404 6.70744 9.30404C6.54129 9.30404 6.40535 9.1681 6.40535 9.00195V6.58529C6.40535 6.08685 6.81317 5.67904 7.3116 5.67904H12.7491ZM12.7491 5.37695H7.3116C6.64702 5.37695 6.10327 5.9207 6.10327 6.58529V9.00195C6.10327 9.33424 6.37515 9.60612 6.70744 9.60612C7.03973 9.60612 7.46265 9.33424 7.46265 9.00195V7.49154C7.46265 7.32539 7.59858 7.18945 7.76473 7.18945H12.296C12.4621 7.18945 12.5981 7.32539 12.5981 7.49154V8.98685C12.5981 9.28893 12.9455 9.5457 13.2324 9.59102C13.2777 9.59102 13.308 9.60612 13.3533 9.60612C13.6856 9.60612 13.9574 9.33424 13.9574 9.00195V6.58529C13.9574 5.9207 13.4137 5.37695 12.7491 5.37695Z" fill="#424242"/>
</g>
<path d="M12.4319 7.2196H7.67407L3.14282 -0.0908203H7.90064L12.4319 7.2196Z" fill="url(#paint3_linear_837_751)"/>
<path d="M11.3897 7.22005H9.36572L4.83447 -0.105469H6.85843L11.3897 7.22005Z" fill="url(#paint4_linear_837_751)"/>
<path d="M12.4168 7.22005H10.7251L6.19385 -0.105469H7.88551L12.4168 7.22005Z" fill="url(#paint5_linear_837_751)"/>
<g opacity="0.2">
<path d="M7.64386 0.362305L11.6163 6.76647H7.93084L3.95845 0.362305H7.64386ZM7.90063 -0.0908203H3.14282L7.67407 7.2196H12.4168C12.4319 7.2196 7.90063 -0.0908203 7.90063 -0.0908203Z" fill="#424242"/>
</g>
<path d="M10.0304 18.9704C13.2002 18.9704 15.7699 16.4007 15.7699 13.2308C15.7699 10.0609 13.2002 7.49121 10.0304 7.49121C6.86047 7.49121 4.29077 10.0609 4.29077 13.2308C4.29077 16.4007 6.86047 18.9704 10.0304 18.9704Z" fill="url(#paint6_radial_837_751)"/>
<path opacity="0.2" d="M10.0304 7.94434C12.9455 7.94434 15.3168 10.3157 15.3168 13.2308C15.3168 16.1459 12.9455 18.5173 10.0304 18.5173C7.11525 18.5173 4.7439 16.1459 4.7439 13.2308C4.7439 10.3157 7.11525 7.94434 10.0304 7.94434ZM10.0304 7.49121C6.85848 7.49121 4.29077 10.0589 4.29077 13.2308C4.29077 16.4027 6.85848 18.9704 10.0304 18.9704C13.2022 18.9704 15.7699 16.4027 15.7699 13.2308C15.7699 10.0589 13.2022 7.49121 10.0304 7.49121Z" fill="#424242"/>
<path d="M10.3625 8.88066L11.4046 10.9801C11.4651 11.0859 11.5708 11.1614 11.6765 11.1765L14.0026 11.5088C14.0328 11.5088 14.063 11.5239 14.0932 11.539C13.489 10.0135 12.039 8.91087 10.3171 8.79004C10.3322 8.83535 10.3473 8.85046 10.3625 8.88066Z" fill="url(#paint7_radial_837_751)"/>
<path d="M6.05791 11.524L8.38395 11.1917C8.50479 11.1766 8.61051 11.101 8.65583 10.9953L9.69801 8.89583C9.71312 8.86563 9.72822 8.85052 9.74333 8.82031C8.02145 8.92604 6.57145 10.0286 5.96729 11.5542C5.99749 11.5391 6.0277 11.524 6.05791 11.524Z" fill="url(#paint8_radial_837_751)"/>
<path d="M7.25122 16.433L7.64393 14.1221C7.65903 14.0012 7.62882 13.8804 7.5382 13.7898L5.86164 12.1585C5.83143 12.1283 5.81633 12.1132 5.80122 12.083C5.7106 12.4304 5.66528 12.7929 5.66528 13.1705C5.66528 14.5299 6.28455 15.7382 7.25122 16.5387C7.23612 16.5085 7.23612 16.4632 7.25122 16.433Z" fill="url(#paint9_radial_837_751)"/>
<path d="M14.2593 12.083C14.2442 12.1132 14.229 12.1434 14.1988 12.1585L12.5223 13.7898C12.4317 13.8804 12.4014 14.0012 12.4166 14.1221L12.8093 16.433C12.8093 16.4632 12.8244 16.5085 12.8093 16.5387C13.7759 15.7382 14.3952 14.5299 14.3952 13.1705C14.3952 12.7929 14.3499 12.4304 14.2593 12.083Z" fill="url(#paint10_radial_837_751)"/>
<path d="M12.2809 16.8262L10.2116 15.7387C10.1059 15.6783 9.96994 15.6783 9.86421 15.7387L7.79494 16.8262C7.76473 16.8413 7.71942 16.8564 7.68921 16.8564C8.3689 17.2944 9.16942 17.5361 10.0455 17.5361C10.9215 17.5361 11.722 17.2793 12.4017 16.8564C12.3413 16.8413 12.3111 16.8413 12.2809 16.8262Z" fill="url(#paint11_radial_837_751)"/>
<path opacity="0.2" d="M11.1328 9.40983C11.9937 9.6666 12.7489 10.2104 13.2625 10.9656L11.7822 10.7541L11.1328 9.40983ZM10.3171 8.80566C10.3322 8.83587 10.3473 8.85098 10.3625 8.88118L11.4046 10.9807C11.4651 11.0864 11.5708 11.1619 11.6765 11.177L14.0026 11.5093C14.0328 11.5093 14.063 11.5244 14.0932 11.5395C13.4739 10.0291 12.0239 8.91139 10.3171 8.80566Z" fill="#424242"/>
<path opacity="0.2" d="M8.9277 9.40983L8.26312 10.739L6.79801 10.9656C7.31156 10.2104 8.06676 9.6666 8.9277 9.40983ZM9.74333 8.80566C8.02145 8.91139 6.57145 10.014 5.96729 11.5395C5.99749 11.5244 6.0277 11.5093 6.05791 11.5093L8.38395 11.177C8.50479 11.1619 8.61051 11.0864 8.65583 10.9807L9.69801 8.88118C9.71312 8.85098 9.72822 8.83587 9.74333 8.80566Z" fill="#424242"/>
<path opacity="0.2" d="M6.11841 13.0346L7.1908 14.0768L6.93403 15.557C6.40539 14.8924 6.11841 14.0465 6.11841 13.1705C6.11841 13.1252 6.11841 13.0799 6.11841 13.0346ZM5.80122 12.083C5.7106 12.4304 5.66528 12.7929 5.66528 13.1705C5.66528 14.5299 6.28455 15.7382 7.25122 16.5387C7.25122 16.5085 7.25122 16.4632 7.25122 16.433L7.64393 14.1221C7.65903 14.0012 7.62882 13.8804 7.5382 13.7898L5.86164 12.1585C5.83143 12.1283 5.81633 12.0981 5.80122 12.083Z" fill="#424242"/>
<path opacity="0.2" d="M13.9426 13.0346V13.1705C13.9426 14.0465 13.6556 14.8924 13.1269 15.5721L12.8702 14.0919L13.9426 13.0346ZM14.2597 12.083C14.2446 12.1132 14.2295 12.1434 14.1993 12.1585L12.5228 13.7898C12.4321 13.8804 12.4019 14.0012 12.417 14.1221L12.8097 16.433C12.8097 16.4632 12.8249 16.5085 12.8097 16.5387C13.7764 15.7382 14.3957 14.5299 14.3957 13.1705C14.3957 12.7929 14.3504 12.4304 14.2597 12.083Z" fill="#424242"/>
<path opacity="0.2" d="M10.0304 16.146L11.3746 16.8559C10.9517 17.0069 10.4986 17.0975 10.0304 17.0975C9.56213 17.0975 9.1241 17.022 8.68608 16.8559L10.0304 16.146ZM10.0304 15.6777C9.96994 15.6777 9.90952 15.6928 9.86421 15.723L7.79494 16.8105C7.76473 16.8257 7.71942 16.8408 7.68921 16.8408C8.3689 17.2788 9.16942 17.5204 10.0455 17.5204C10.9215 17.5204 11.722 17.2637 12.4017 16.8408C12.3715 16.8408 12.3413 16.8257 12.296 16.8105L10.2267 15.723C10.1512 15.6928 10.0908 15.6777 10.0304 15.6777Z" fill="#424242"/>
</g>
<defs>
<linearGradient id="paint0_linear_837_751" x1="14.4878" y1="0.102875" x2="9.75518" y2="7.65502" gradientUnits="userSpaceOnUse">
<stop offset="0.1848" stop-color="#1E88E5"/>
<stop offset="0.806" stop-color="#1565C0"/>
</linearGradient>
<linearGradient id="paint1_linear_837_751" x1="14.1491" y1="1.1331" x2="10.0899" y2="7.47685" gradientUnits="userSpaceOnUse">
<stop offset="0.461" stop-color="#EEEEEE"/>
<stop offset="1" stop-color="#BDBDBD"/>
</linearGradient>
<linearGradient id="paint2_linear_837_751" x1="15.5024" y1="0.854295" x2="11.7263" y2="7.00932" gradientUnits="userSpaceOnUse">
<stop offset="0.2565" stop-color="#E53935"/>
<stop offset="0.8859" stop-color="#C62828"/>
</linearGradient>
<linearGradient id="paint3_linear_837_751" x1="5.61856" y1="0.103465" x2="10.3512" y2="7.65562" gradientUnits="userSpaceOnUse">
<stop offset="0.1355" stop-color="#64B5F6"/>
<stop offset="0.9462" stop-color="#2196F3"/>
</linearGradient>
<linearGradient id="paint4_linear_837_751" x1="6.13478" y1="0.467206" x2="10.194" y2="6.8109" gradientUnits="userSpaceOnUse">
<stop offset="0.2104" stop-color="#FAFAFA"/>
<stop offset="0.7737" stop-color="#E0E0E0"/>
</linearGradient>
<linearGradient id="paint5_linear_837_751" x1="7.64861" y1="0.856833" x2="11.4246" y2="7.01187" gradientUnits="userSpaceOnUse">
<stop offset="0.2579" stop-color="#EF5350"/>
<stop offset="0.89" stop-color="#E53935"/>
</linearGradient>
<radialGradient id="paint6_radial_837_751" cx="0" cy="0" r="1" gradientUnits="userSpaceOnUse" gradientTransform="translate(6.85848 8.92611) scale(10.9622)">
<stop offset="0.2972" stop-color="#FFEB3B"/>
<stop offset="0.9544" stop-color="#FBC02D"/>
</radialGradient>
<radialGradient id="paint7_radial_837_751" cx="0" cy="0" r="1" gradientUnits="userSpaceOnUse" gradientTransform="translate(7.9186 9.50069) scale(8.22633 8.22633)">
<stop offset="0.0977" stop-color="#FDD835"/>
<stop offset="0.9508" stop-color="#F9A825"/>
</radialGradient>
<radialGradient id="paint8_radial_837_751" cx="0" cy="0" r="1" gradientUnits="userSpaceOnUse" gradientTransform="translate(7.91874 9.50076) scale(8.22633 8.22633)">
<stop offset="0.0977" stop-color="#FDD835"/>
<stop offset="0.9508" stop-color="#F9A825"/>
</radialGradient>
<radialGradient id="paint9_radial_837_751" cx="0" cy="0" r="1" gradientUnits="userSpaceOnUse" gradientTransform="translate(7.91883 9.50095) scale(8.22633 8.22633)">
<stop offset="0.0977" stop-color="#FDD835"/>
<stop offset="0.9508" stop-color="#F9A825"/>
</radialGradient>
<radialGradient id="paint10_radial_837_751" cx="0" cy="0" r="1" gradientUnits="userSpaceOnUse" gradientTransform="translate(7.91853 9.50095) scale(8.22633)">
<stop offset="0.0977" stop-color="#FDD835"/>
<stop offset="0.9508" stop-color="#F9A825"/>
</radialGradient>
<radialGradient id="paint11_radial_837_751" cx="0" cy="0" r="1" gradientUnits="userSpaceOnUse" gradientTransform="translate(7.91879 9.50141) scale(8.22633 8.22633)">
<stop offset="0.0977" stop-color="#FDD835"/>
<stop offset="0.9508" stop-color="#F9A825"/>
</radialGradient>
<clipPath id="clip0_837_751">
<rect width="19.3333" height="19.3333" fill="white" transform="translate(0.363525 0.241211)"/>
</clipPath>
</defs>
</svg>
